<svg xmlns="http://www.w3.org/2000/svg" xmlns:xlink="http://www.w3.org/1999/xlink" width="500" zoomAndPan="magnify" viewBox="0 0 375 374.999991" height="500" preserveAspectRatio="xMidYMid meet" version="1.0"><defs><clipPath id="d95963ea8b"><path d="M 9.683594 2.003906 L 365.183594 2.003906 L 365.183594 357.503906 L 9.683594 357.503906 Z M 9.683594 2.003906 " clip-rule="nonzero"/></clipPath><clipPath id="eb222ae341"><path d="M 103 92 L 365.164062 92 L 365.164062 232 L 103 232 Z M 103 92 " clip-rule="nonzero"/></clipPath></defs><g clip-path="url(#d95963ea8b)"><path fill="#ffffff" d="M 187.496094 357.632812 C 89.699219 357.632812 9.683594 277.617188 9.683594 179.820312 C 9.683594 82.023438 89.699219 2.003906 187.496094 2.003906 C 285.292969 2.003906 365.3125 82.023438 365.3125 179.820312 C 365.3125 277.617188 285.292969 357.632812 187.496094 357.632812 Z M 187.496094 357.632812 " fill-opacity="1" fill-rule="nonzero"/></g><g clip-path="url(#eb222ae341)"><path fill="#2ea5e4" d="M 196.464844 148.730469 C 186.875 105.925781 146.085938 98.949219 137.617188 137.34375 C 137.867188 136.410156 137.671875 137.15625 137.722656 136.980469 C 129.007812 178.019531 178.074219 200.765625 212.832031 200.371094 C 212.75 200.378906 213.175781 200.355469 212.6875 200.386719 C 262.601562 199.25 318.011719 176.152344 365.164062 200.75 C 341.4375 198.097656 313.730469 204.730469 290.925781 212.457031 C 169.769531 260.726562 118.539062 203.671875 106.941406 170.445312 C 91.875 125.277344 132.742188 75.871094 176.066406 98.109375 C 176.042969 98.101562 176.613281 98.335938 176.433594 98.269531 C 194.59375 107.511719 200.949219 129.023438 196.464844 148.730469 " fill-opacity="1" fill-rule="nonzero"/></g><path fill="#177bb6" d="M 34.492188 137.984375 C 49.160156 249.449219 140.550781 262.160156 230.140625 245.578125 C 272.816406 236.457031 315.976562 211.996094 360.25 221.21875 C 336.574219 225.34375 311.503906 239.214844 290.300781 251.011719 C 157.285156 330.164062 -3.304688 261.8125 34.492188 137.984375 " fill-opacity="1" fill-rule="nonzero"/><path fill="#2ea5e4" d="M 91.558594 67.953125 C 91.558594 67.953125 25.347656 150.253906 118.839844 223.710938 C 118.839844 223.710938 -13.589844 161.351562 91.558594 67.953125 " fill-opacity="1" fill-rule="nonzero"/><path fill="#2ea5e4" d="M 171.9375 71.136719 C 171.9375 71.136719 100.570312 61.804688 88.394531 131.414062 C 88.394531 131.414062 80.8125 45.21875 171.9375 71.136719 " fill-opacity="1" fill-rule="nonzero"/></svg>